%TF.GenerationSoftware,KiCad,Pcbnew,10.0.0*%
%TF.CreationDate,2026-06-18T06:46:12+05:30*%
%TF.ProjectId,low key,6c6f7720-6b65-4792-9e6b-696361645f70,V1*%
%TF.SameCoordinates,Original*%
%TF.FileFunction,Legend,Top*%
%TF.FilePolarity,Positive*%
%FSLAX46Y46*%
G04 Gerber Fmt 4.6, Leading zero omitted, Abs format (unit mm)*
G04 Created by KiCad (PCBNEW 10.0.0) date 2026-06-18 06:46:12*
%MOMM*%
%LPD*%
G01*
G04 APERTURE LIST*
%ADD10C,0.300000*%
%ADD11C,0.150000*%
G04 APERTURE END LIST*
D10*
G36*
X153534699Y-87277388D02*
G01*
X153783141Y-87297002D01*
X153972819Y-87326015D01*
X154150157Y-87369556D01*
X154303669Y-87423943D01*
X154435903Y-87489535D01*
X154545869Y-87565069D01*
X154640566Y-87655849D01*
X154718981Y-87764187D01*
X153595952Y-87833185D01*
X153531939Y-87726879D01*
X153450872Y-87668443D01*
X153339940Y-87633667D01*
X153203454Y-87621793D01*
X153079106Y-87630024D01*
X152971110Y-87654107D01*
X152875150Y-87695072D01*
X152789462Y-87756371D01*
X152734143Y-87826322D01*
X152679194Y-87953823D01*
X152630949Y-88164867D01*
X152825966Y-88081162D01*
X153028087Y-88022229D01*
X153251156Y-87986218D01*
X153517550Y-87973503D01*
X153779510Y-87985726D01*
X154015346Y-88021374D01*
X154230510Y-88080359D01*
X154428820Y-88164501D01*
X154590675Y-88265446D01*
X154706088Y-88378098D01*
X154776945Y-88504762D01*
X154801535Y-88648590D01*
X154780189Y-88777861D01*
X154717412Y-88897663D01*
X154613224Y-89009947D01*
X154470764Y-89110544D01*
X154297720Y-89192480D01*
X154091032Y-89257365D01*
X153862507Y-89302135D01*
X153587003Y-89330925D01*
X153255233Y-89341263D01*
X152856710Y-89328312D01*
X152538918Y-89292862D01*
X152286810Y-89238681D01*
X152065098Y-89159140D01*
X151870894Y-89051514D01*
X151703070Y-88911151D01*
X151613729Y-88799175D01*
X151545243Y-88665224D01*
X151540991Y-88649933D01*
X152667341Y-88649933D01*
X152687257Y-88753340D01*
X152742300Y-88834964D01*
X152829030Y-88899549D01*
X152946406Y-88950032D01*
X153076801Y-88979529D01*
X153225191Y-88989553D01*
X153361448Y-88980449D01*
X153480053Y-88953778D01*
X153585694Y-88908342D01*
X153662189Y-88849764D01*
X153712357Y-88770681D01*
X153731018Y-88664832D01*
X153711831Y-88556421D01*
X153659876Y-88474091D01*
X153580076Y-88411919D01*
X153470015Y-88363288D01*
X153346922Y-88334880D01*
X153205896Y-88325212D01*
X153060796Y-88334667D01*
X152934525Y-88362315D01*
X152822191Y-88409232D01*
X152739630Y-88469748D01*
X152686690Y-88548243D01*
X152667341Y-88649933D01*
X151540991Y-88649933D01*
X151500875Y-88505686D01*
X151484961Y-88316542D01*
X151507538Y-88090360D01*
X151570045Y-87903497D01*
X151666043Y-87749926D01*
X151791170Y-87624379D01*
X151943405Y-87522508D01*
X152136354Y-87433422D01*
X152355471Y-87363873D01*
X152604481Y-87313014D01*
X152888587Y-87281223D01*
X153214200Y-87270083D01*
X153534699Y-87277388D01*
G37*
G36*
X157153883Y-87276403D02*
G01*
X157373419Y-87293733D01*
X157550244Y-87320031D01*
X157792517Y-87379127D01*
X157976203Y-87450090D01*
X158125899Y-87533701D01*
X158235833Y-87618496D01*
X158319447Y-87711511D01*
X158388241Y-87824270D01*
X158472160Y-88051304D01*
X158500593Y-88290652D01*
X158481804Y-88520957D01*
X158430057Y-88710077D01*
X158351354Y-88864114D01*
X158250290Y-88988541D01*
X158129832Y-89088105D01*
X157971545Y-89174334D01*
X157773179Y-89243301D01*
X157527681Y-89295366D01*
X157225149Y-89329071D01*
X156853419Y-89341263D01*
X156517312Y-89331073D01*
X156247744Y-89303153D01*
X156032763Y-89260540D01*
X155837635Y-89198775D01*
X155666974Y-89120339D01*
X155518876Y-89023625D01*
X155434646Y-88947008D01*
X155358402Y-88847710D01*
X155292463Y-88721130D01*
X155232712Y-88523864D01*
X155211618Y-88297491D01*
X155211770Y-88295781D01*
X156331228Y-88295781D01*
X156351172Y-88552888D01*
X156400204Y-88716209D01*
X156464829Y-88812843D01*
X156544172Y-88876186D01*
X156633526Y-88917922D01*
X156734270Y-88942205D01*
X156850732Y-88950474D01*
X157005589Y-88936002D01*
X157139183Y-88892344D01*
X157208715Y-88849840D01*
X157269624Y-88789746D01*
X157319923Y-88707330D01*
X157360908Y-88562614D01*
X157378297Y-88310802D01*
X157357996Y-88042158D01*
X157308604Y-87875532D01*
X157244452Y-87780184D01*
X157165504Y-87718814D01*
X157074303Y-87677803D01*
X156969093Y-87653583D01*
X156845115Y-87645240D01*
X156719107Y-87653843D01*
X156614707Y-87678618D01*
X156526551Y-87720372D01*
X156452861Y-87782871D01*
X156394036Y-87879152D01*
X156349372Y-88041345D01*
X156331228Y-88295781D01*
X155211770Y-88295781D01*
X155233228Y-88054489D01*
X155292002Y-87860845D01*
X155380213Y-87708301D01*
X155492227Y-87589580D01*
X155624877Y-87498572D01*
X155797220Y-87420133D01*
X156002997Y-87357538D01*
X156247616Y-87310694D01*
X156538243Y-87280762D01*
X156883461Y-87270083D01*
X157153883Y-87276403D01*
G37*
G36*
X160661165Y-89411605D02*
G01*
X160072295Y-89411605D01*
X162389672Y-87270083D01*
X162984159Y-87270083D01*
X160661165Y-89411605D01*
G37*
G36*
X163214874Y-88358688D02*
G01*
X163427975Y-88387015D01*
X163608946Y-88432110D01*
X163763049Y-88493984D01*
X163888613Y-88570897D01*
X163979145Y-88659281D01*
X164035416Y-88761357D01*
X164055163Y-88880132D01*
X164035416Y-88998908D01*
X163979145Y-89100983D01*
X163888613Y-89189367D01*
X163763049Y-89266280D01*
X163608946Y-89328154D01*
X163427975Y-89373249D01*
X163214874Y-89401577D01*
X162962665Y-89411605D01*
X162738977Y-89403485D01*
X162542348Y-89380210D01*
X162368422Y-89342728D01*
X162213048Y-89289953D01*
X162089276Y-89225383D01*
X161993998Y-89147822D01*
X161903236Y-89018097D01*
X161873015Y-88880865D01*
X162656140Y-88880865D01*
X162670901Y-88991496D01*
X162709114Y-89069170D01*
X162764096Y-89122177D01*
X162844815Y-89157075D01*
X162962665Y-89169316D01*
X163081023Y-89157121D01*
X163163921Y-89122177D01*
X163218904Y-89069170D01*
X163257116Y-88991496D01*
X163271877Y-88880865D01*
X163257173Y-88770167D01*
X163219002Y-88691924D01*
X163163921Y-88638087D01*
X163081023Y-88603143D01*
X162962665Y-88590949D01*
X162845041Y-88603450D01*
X162764096Y-88639309D01*
X162709111Y-88692392D01*
X162670899Y-88770149D01*
X162656140Y-88880865D01*
X161873015Y-88880865D01*
X161872854Y-88880132D01*
X161903236Y-88742167D01*
X161993998Y-88612442D01*
X162089276Y-88534881D01*
X162213048Y-88470311D01*
X162368422Y-88417536D01*
X162542348Y-88380054D01*
X162738977Y-88356779D01*
X162962665Y-88348660D01*
X163214874Y-88358688D01*
G37*
G36*
X160327988Y-87280063D02*
G01*
X160540245Y-87308273D01*
X160720815Y-87353216D01*
X160874877Y-87414919D01*
X161000388Y-87491596D01*
X161090920Y-87579844D01*
X161147222Y-87681907D01*
X161166992Y-87800823D01*
X161147176Y-87920532D01*
X161090801Y-88023070D01*
X161000258Y-88111528D01*
X160874877Y-88188192D01*
X160720815Y-88249896D01*
X160540245Y-88294838D01*
X160327988Y-88323049D01*
X160077180Y-88333028D01*
X159851619Y-88324942D01*
X159654661Y-88301836D01*
X159481716Y-88264762D01*
X159327327Y-88212373D01*
X159203481Y-88147749D01*
X159107292Y-88069612D01*
X159039138Y-87983294D01*
X158998386Y-87894026D01*
X158984682Y-87800823D01*
X159767969Y-87800823D01*
X159782733Y-87911540D01*
X159820949Y-87989249D01*
X159875924Y-88042257D01*
X159959232Y-88078267D01*
X160077180Y-88090739D01*
X160194804Y-88078238D01*
X160275750Y-88042379D01*
X160330735Y-87989295D01*
X160368946Y-87911538D01*
X160383705Y-87800823D01*
X160369050Y-87691152D01*
X160330922Y-87613280D01*
X160275750Y-87559389D01*
X160195053Y-87524587D01*
X160077180Y-87512372D01*
X159958823Y-87524567D01*
X159875924Y-87559511D01*
X159820942Y-87612518D01*
X159782730Y-87690191D01*
X159767969Y-87800823D01*
X158984682Y-87800823D01*
X159015309Y-87663828D01*
X159107292Y-87533499D01*
X159203481Y-87455362D01*
X159327327Y-87390739D01*
X159481716Y-87338349D01*
X159654661Y-87301276D01*
X159851619Y-87278170D01*
X160077180Y-87270083D01*
X160327988Y-87280063D01*
G37*
G36*
X166593579Y-87301346D02*
G01*
X167846789Y-87301346D01*
X167846789Y-88050806D01*
X169133461Y-87301346D01*
X170800418Y-87301346D01*
X169332519Y-88058133D01*
X170861479Y-89310000D01*
X169318108Y-89310000D01*
X168476448Y-88498625D01*
X167846789Y-88828841D01*
X167846789Y-89310000D01*
X166593579Y-89310000D01*
X166593579Y-87301346D01*
G37*
G36*
X173005411Y-87829339D02*
G01*
X173328692Y-87862175D01*
X173577948Y-87911465D01*
X173801495Y-87984049D01*
X173984290Y-88074494D01*
X174130181Y-88184528D01*
X174230551Y-88307505D01*
X174295945Y-88460359D01*
X174319713Y-88649567D01*
X174319713Y-88716001D01*
X172090997Y-88716001D01*
X172122526Y-88800910D01*
X172170837Y-88864449D01*
X172232903Y-88911151D01*
X172349727Y-88963408D01*
X172485935Y-88994445D01*
X172647871Y-89005184D01*
X172805209Y-88995123D01*
X172955617Y-88964640D01*
X173042190Y-88931691D01*
X173150034Y-88872194D01*
X174261828Y-88919699D01*
X174069561Y-89062793D01*
X173864679Y-89169169D01*
X173646336Y-89244542D01*
X173399771Y-89294548D01*
X173066483Y-89328496D01*
X172623447Y-89341263D01*
X172238677Y-89330661D01*
X171940651Y-89302124D01*
X171712665Y-89259563D01*
X171507035Y-89195701D01*
X171323935Y-89110125D01*
X171161653Y-89000055D01*
X171042353Y-88877238D01*
X170968849Y-88738959D01*
X170943300Y-88581912D01*
X170967571Y-88442449D01*
X172093684Y-88442449D01*
X173172260Y-88442449D01*
X173135208Y-88342466D01*
X173076989Y-88270960D01*
X173001779Y-88221165D01*
X172902030Y-88184080D01*
X172782288Y-88161305D01*
X172636880Y-88153265D01*
X172472903Y-88164886D01*
X172336055Y-88198542D01*
X172219469Y-88255725D01*
X172141751Y-88329195D01*
X172093684Y-88442449D01*
X170967571Y-88442449D01*
X170972501Y-88414122D01*
X171056164Y-88268546D01*
X171191781Y-88141062D01*
X171381472Y-88028702D01*
X171562676Y-87955045D01*
X171769851Y-87896802D01*
X172006781Y-87853781D01*
X172278378Y-87826707D01*
X172590474Y-87817187D01*
X173005411Y-87829339D01*
G37*
G36*
X174394452Y-87848450D02*
G01*
X175587090Y-87848450D01*
X176179378Y-88806493D01*
X176728436Y-87848450D01*
X177841207Y-87848450D01*
X176686915Y-89409406D01*
X176537214Y-89586061D01*
X176402974Y-89701283D01*
X176283182Y-89771130D01*
X176131467Y-89825607D01*
X175939338Y-89867049D01*
X175697704Y-89894123D01*
X175395359Y-89903998D01*
X175121183Y-89897302D01*
X174645045Y-89871514D01*
X174555652Y-89478771D01*
X174813748Y-89510189D01*
X175100314Y-89521025D01*
X175280592Y-89508585D01*
X175413921Y-89474253D01*
X175517447Y-89414883D01*
X175616643Y-89307557D01*
X174394452Y-87848450D01*
G37*
G36*
X179284438Y-87985715D02*
G01*
X179452808Y-87914453D01*
X179652023Y-87861151D01*
X179873246Y-87828488D01*
X180123656Y-87817187D01*
X180382830Y-87829572D01*
X180612635Y-87865497D01*
X180819105Y-87924704D01*
X181006350Y-88009040D01*
X181151999Y-88109009D01*
X181260758Y-88230772D01*
X181330535Y-88378802D01*
X181355617Y-88558709D01*
X181336734Y-88716217D01*
X181282660Y-88855573D01*
X181196127Y-88979295D01*
X181072041Y-89093536D01*
X180925102Y-89183023D01*
X180754780Y-89251259D01*
X180560321Y-89301194D01*
X180353022Y-89331111D01*
X180129030Y-89341263D01*
X179935924Y-89334080D01*
X179757013Y-89313010D01*
X179589741Y-89278248D01*
X179411962Y-89214644D01*
X179202372Y-89102271D01*
X179202372Y-89310000D01*
X178145533Y-89310000D01*
X178145533Y-88574951D01*
X179276133Y-88574951D01*
X179294806Y-88697733D01*
X179343473Y-88784393D01*
X179414619Y-88844106D01*
X179516413Y-88890557D01*
X179631769Y-88917740D01*
X179765596Y-88927027D01*
X179888600Y-88918057D01*
X179996806Y-88891496D01*
X180094591Y-88845450D01*
X180162166Y-88786735D01*
X180209337Y-88698319D01*
X180227704Y-88569455D01*
X180210319Y-88456663D01*
X180164652Y-88375705D01*
X180097278Y-88318740D01*
X180001687Y-88273657D01*
X179897917Y-88247874D01*
X179781960Y-88239239D01*
X179640940Y-88248668D01*
X179521254Y-88276028D01*
X179417550Y-88322281D01*
X179343680Y-88381791D01*
X179294570Y-88463688D01*
X179276133Y-88574951D01*
X178145533Y-88574951D01*
X178145533Y-87301346D01*
X179284438Y-87301346D01*
X179284438Y-87985715D01*
G37*
G36*
X183756420Y-87828789D02*
G01*
X184058533Y-87861521D01*
X184316453Y-87913195D01*
X184536942Y-87982927D01*
X184724947Y-88071200D01*
X184881038Y-88178340D01*
X184992614Y-88296501D01*
X185061050Y-88427814D01*
X185084717Y-88575073D01*
X185055337Y-88739687D01*
X184970704Y-88884077D01*
X184832622Y-89012087D01*
X184638241Y-89126451D01*
X184453806Y-89201194D01*
X184242697Y-89260337D01*
X184001015Y-89304052D01*
X183723716Y-89331579D01*
X183404815Y-89341263D01*
X183054525Y-89328960D01*
X182753414Y-89294061D01*
X182493556Y-89238529D01*
X182268597Y-89162843D01*
X182075281Y-89068041D01*
X181927886Y-88964289D01*
X181822526Y-88850339D01*
X181757958Y-88724222D01*
X181735659Y-88583377D01*
X181736542Y-88578492D01*
X182866015Y-88578492D01*
X182886457Y-88706323D01*
X182940536Y-88799254D01*
X183021109Y-88865722D01*
X183134813Y-88917671D01*
X183262733Y-88947970D01*
X183410188Y-88958290D01*
X183559654Y-88948016D01*
X183687478Y-88918058D01*
X183799267Y-88867065D01*
X183877679Y-88801481D01*
X183931184Y-88706742D01*
X183951674Y-88572997D01*
X183931569Y-88448998D01*
X183878129Y-88357987D01*
X183798046Y-88292117D01*
X183685513Y-88240316D01*
X183560662Y-88210315D01*
X183418492Y-88200160D01*
X183267375Y-88210616D01*
X183137168Y-88241211D01*
X183022330Y-88293461D01*
X182940833Y-88360312D01*
X182886467Y-88452668D01*
X182866015Y-88578492D01*
X181736542Y-88578492D01*
X181765127Y-88420328D01*
X181850219Y-88276635D01*
X181989456Y-88148560D01*
X182186043Y-88033464D01*
X182372652Y-87957688D01*
X182583563Y-87898056D01*
X182822238Y-87854235D01*
X183093210Y-87826795D01*
X183401884Y-87817187D01*
X183756420Y-87828789D01*
G37*
G36*
X187539380Y-87825136D02*
G01*
X187868353Y-87845397D01*
X188064644Y-87871760D01*
X188232756Y-87911089D01*
X188376866Y-87963122D01*
X188501733Y-88035452D01*
X188603035Y-88138855D01*
X188665750Y-88251985D01*
X188685589Y-88355743D01*
X188685589Y-88997002D01*
X188692932Y-89093570D01*
X188711235Y-89156859D01*
X188749432Y-89218257D01*
X188829692Y-89310000D01*
X187768702Y-89310000D01*
X187683949Y-89220240D01*
X187647801Y-89133046D01*
X187431135Y-89222566D01*
X187221598Y-89280324D01*
X187020392Y-89313291D01*
X186792199Y-89334003D01*
X186532833Y-89341263D01*
X186269342Y-89332439D01*
X186054766Y-89308031D01*
X185880420Y-89270269D01*
X185739288Y-89220118D01*
X185618859Y-89154880D01*
X185535170Y-89084254D01*
X185484890Y-89006954D01*
X185467690Y-88921043D01*
X185476910Y-88878056D01*
X186598046Y-88878056D01*
X186620623Y-88935542D01*
X186687194Y-88980882D01*
X186791187Y-89009811D01*
X186950976Y-89020816D01*
X187128750Y-89009805D01*
X187292672Y-88976974D01*
X187431080Y-88926701D01*
X187516643Y-88870118D01*
X187564542Y-88801297D01*
X187582588Y-88705743D01*
X187582588Y-88623799D01*
X187114131Y-88693408D01*
X186811681Y-88742957D01*
X186688415Y-88779870D01*
X186619864Y-88826943D01*
X186598046Y-88878056D01*
X185476910Y-88878056D01*
X185490695Y-88813787D01*
X185556316Y-88723586D01*
X185663572Y-88646758D01*
X185809719Y-88587674D01*
X186039999Y-88533656D01*
X186383845Y-88487390D01*
X187194731Y-88399462D01*
X187582588Y-88334249D01*
X187558791Y-88244090D01*
X187500034Y-88193810D01*
X187397437Y-88165104D01*
X187207920Y-88153265D01*
X186956834Y-88165613D01*
X186802233Y-88196374D01*
X186713005Y-88241138D01*
X186631263Y-88325457D01*
X185553419Y-88270013D01*
X185633423Y-88136038D01*
X185730006Y-88045676D01*
X185865129Y-87972474D01*
X186059246Y-87906214D01*
X186229840Y-87870372D01*
X186482030Y-87840390D01*
X186756541Y-87823193D01*
X187063084Y-87817187D01*
X187539380Y-87825136D01*
G37*
G36*
X189347243Y-87848450D02*
G01*
X190403838Y-87848450D01*
X190403838Y-88073032D01*
X190505250Y-87983349D01*
X190604527Y-87919230D01*
X190701814Y-87875561D01*
X190814968Y-87843800D01*
X190946623Y-87824107D01*
X191101151Y-87817187D01*
X191263248Y-87824898D01*
X191444589Y-87849562D01*
X191649476Y-87894246D01*
X191299232Y-88297247D01*
X191105646Y-88263699D01*
X190983670Y-88254870D01*
X190850176Y-88264944D01*
X190741548Y-88294007D01*
X190651500Y-88343653D01*
X190567780Y-88433951D01*
X190505644Y-88583911D01*
X190480530Y-88818217D01*
X190480530Y-89310000D01*
X189347243Y-89310000D01*
X189347243Y-87848450D01*
G37*
G36*
X194958722Y-89310000D02*
G01*
X193901884Y-89310000D01*
X193901884Y-89102271D01*
X193690191Y-89215653D01*
X193514515Y-89278248D01*
X193348935Y-89312928D01*
X193170089Y-89334037D01*
X192975226Y-89341263D01*
X192740016Y-89331536D01*
X192536066Y-89303719D01*
X192357795Y-89258813D01*
X192201057Y-89196384D01*
X192063468Y-89114605D01*
X191928711Y-88998204D01*
X191830723Y-88869138D01*
X191769977Y-88725313D01*
X191751905Y-88587285D01*
X192876552Y-88587285D01*
X192894337Y-88703685D01*
X192940987Y-88787015D01*
X193009665Y-88845450D01*
X193107450Y-88891496D01*
X193215656Y-88918057D01*
X193338660Y-88927027D01*
X193470848Y-88917849D01*
X193585785Y-88890897D01*
X193688171Y-88844717D01*
X193759979Y-88785364D01*
X193809195Y-88698605D01*
X193828122Y-88574951D01*
X193809519Y-88463754D01*
X193759931Y-88381853D01*
X193685240Y-88322281D01*
X193580919Y-88275851D01*
X193462494Y-88248576D01*
X193324982Y-88239239D01*
X193205547Y-88247975D01*
X193100477Y-88273853D01*
X193005512Y-88318740D01*
X192940048Y-88375920D01*
X192894344Y-88461962D01*
X192876552Y-88587285D01*
X191751905Y-88587285D01*
X191748883Y-88564204D01*
X191773963Y-88381968D01*
X191843622Y-88232449D01*
X191951960Y-88109883D01*
X192096685Y-88009651D01*
X192283274Y-87925118D01*
X192489705Y-87865722D01*
X192720170Y-87829641D01*
X192980844Y-87817187D01*
X193233599Y-87828517D01*
X193455163Y-87861151D01*
X193654067Y-87914505D01*
X193820062Y-87985593D01*
X193820062Y-87301346D01*
X194958722Y-87301346D01*
X194958722Y-89310000D01*
G37*
G36*
X197614619Y-87301346D02*
G01*
X199257152Y-87301346D01*
X199879483Y-88506196D01*
X200499127Y-87301346D01*
X202136043Y-87301346D01*
X202136043Y-89310000D01*
X201109490Y-89310000D01*
X201117306Y-87778597D01*
X200339148Y-89310000D01*
X199411514Y-89310000D01*
X198636287Y-87778597D01*
X198644103Y-89310000D01*
X197614619Y-89310000D01*
X197614619Y-87301346D01*
G37*
G36*
X204773155Y-87825136D02*
G01*
X205102128Y-87845397D01*
X205298419Y-87871760D01*
X205466531Y-87911089D01*
X205610642Y-87963122D01*
X205735508Y-88035452D01*
X205836810Y-88138855D01*
X205899526Y-88251985D01*
X205919364Y-88355743D01*
X205919364Y-88997002D01*
X205926708Y-89093570D01*
X205945010Y-89156859D01*
X205983207Y-89218257D01*
X206063468Y-89310000D01*
X205002477Y-89310000D01*
X204917725Y-89220240D01*
X204881577Y-89133046D01*
X204664910Y-89222566D01*
X204455373Y-89280324D01*
X204254167Y-89313291D01*
X204025974Y-89334003D01*
X203766608Y-89341263D01*
X203503117Y-89332439D01*
X203288542Y-89308031D01*
X203114195Y-89270269D01*
X202973063Y-89220118D01*
X202852634Y-89154880D01*
X202768946Y-89084254D01*
X202718665Y-89006954D01*
X202701465Y-88921043D01*
X202710685Y-88878056D01*
X203831821Y-88878056D01*
X203854398Y-88935542D01*
X203920969Y-88980882D01*
X204024962Y-89009811D01*
X204184752Y-89020816D01*
X204362526Y-89009805D01*
X204526448Y-88976974D01*
X204664855Y-88926701D01*
X204750418Y-88870118D01*
X204798317Y-88801297D01*
X204816364Y-88705743D01*
X204816364Y-88623799D01*
X204347906Y-88693408D01*
X204045457Y-88742957D01*
X203922191Y-88779870D01*
X203853639Y-88826943D01*
X203831821Y-88878056D01*
X202710685Y-88878056D01*
X202724470Y-88813787D01*
X202790091Y-88723586D01*
X202897348Y-88646758D01*
X203043494Y-88587674D01*
X203273774Y-88533656D01*
X203617620Y-88487390D01*
X204428506Y-88399462D01*
X204816364Y-88334249D01*
X204792566Y-88244090D01*
X204733810Y-88193810D01*
X204631212Y-88165104D01*
X204441695Y-88153265D01*
X204190609Y-88165613D01*
X204036008Y-88196374D01*
X203946781Y-88241138D01*
X203865038Y-88325457D01*
X202787194Y-88270013D01*
X202867198Y-88136038D01*
X202963782Y-88045676D01*
X203098904Y-87972474D01*
X203293021Y-87906214D01*
X203463616Y-87870372D01*
X203715806Y-87840390D01*
X203990317Y-87823193D01*
X204296859Y-87817187D01*
X204773155Y-87825136D01*
G37*
G36*
X209640648Y-89310000D02*
G01*
X208583810Y-89310000D01*
X208583810Y-89102271D01*
X208372117Y-89215653D01*
X208196441Y-89278248D01*
X208030861Y-89312928D01*
X207852015Y-89334037D01*
X207657152Y-89341263D01*
X207421942Y-89331536D01*
X207217992Y-89303719D01*
X207039721Y-89258813D01*
X206882983Y-89196384D01*
X206745394Y-89114605D01*
X206610637Y-88998204D01*
X206512649Y-88869138D01*
X206451903Y-88725313D01*
X206433831Y-88587285D01*
X207558478Y-88587285D01*
X207576263Y-88703685D01*
X207622913Y-88787015D01*
X207691591Y-88845450D01*
X207789376Y-88891496D01*
X207897582Y-88918057D01*
X208020586Y-88927027D01*
X208152774Y-88917849D01*
X208267711Y-88890897D01*
X208370097Y-88844717D01*
X208441905Y-88785364D01*
X208491121Y-88698605D01*
X208510048Y-88574951D01*
X208491445Y-88463754D01*
X208441857Y-88381853D01*
X208367166Y-88322281D01*
X208262845Y-88275851D01*
X208144420Y-88248576D01*
X208006908Y-88239239D01*
X207887473Y-88247975D01*
X207782403Y-88273853D01*
X207687438Y-88318740D01*
X207621974Y-88375920D01*
X207576270Y-88461962D01*
X207558478Y-88587285D01*
X206433831Y-88587285D01*
X206430809Y-88564204D01*
X206455889Y-88381968D01*
X206525548Y-88232449D01*
X206633886Y-88109883D01*
X206778611Y-88009651D01*
X206965200Y-87925118D01*
X207171631Y-87865722D01*
X207402096Y-87829641D01*
X207662770Y-87817187D01*
X207915525Y-87828517D01*
X208137090Y-87861151D01*
X208335993Y-87914505D01*
X208501988Y-87985593D01*
X208501988Y-87301346D01*
X209640648Y-87301346D01*
X209640648Y-89310000D01*
G37*
G36*
X212224950Y-87829339D02*
G01*
X212548231Y-87862175D01*
X212797487Y-87911465D01*
X213021034Y-87984049D01*
X213203829Y-88074494D01*
X213349720Y-88184528D01*
X213450091Y-88307505D01*
X213515484Y-88460359D01*
X213539253Y-88649567D01*
X213539253Y-88716001D01*
X211310537Y-88716001D01*
X211342066Y-88800910D01*
X211390377Y-88864449D01*
X211452442Y-88911151D01*
X211569266Y-88963408D01*
X211705475Y-88994445D01*
X211867411Y-89005184D01*
X212024748Y-88995123D01*
X212175157Y-88964640D01*
X212261729Y-88931691D01*
X212369574Y-88872194D01*
X213481367Y-88919699D01*
X213289100Y-89062793D01*
X213084218Y-89169169D01*
X212865875Y-89244542D01*
X212619311Y-89294548D01*
X212286022Y-89328496D01*
X211842986Y-89341263D01*
X211458216Y-89330661D01*
X211160191Y-89302124D01*
X210932205Y-89259563D01*
X210726575Y-89195701D01*
X210543474Y-89110125D01*
X210381193Y-89000055D01*
X210261893Y-88877238D01*
X210188388Y-88738959D01*
X210162840Y-88581912D01*
X210187110Y-88442449D01*
X211313224Y-88442449D01*
X212391800Y-88442449D01*
X212354748Y-88342466D01*
X212296528Y-88270960D01*
X212221318Y-88221165D01*
X212121569Y-88184080D01*
X212001827Y-88161305D01*
X211856420Y-88153265D01*
X211692442Y-88164886D01*
X211555595Y-88198542D01*
X211439009Y-88255725D01*
X211361291Y-88329195D01*
X211313224Y-88442449D01*
X210187110Y-88442449D01*
X210192040Y-88414122D01*
X210275704Y-88268546D01*
X210411321Y-88141062D01*
X210601011Y-88028702D01*
X210782216Y-87955045D01*
X210989391Y-87896802D01*
X211226321Y-87853781D01*
X211497918Y-87826707D01*
X211810013Y-87817187D01*
X212224950Y-87829339D01*
G37*
G36*
X217042428Y-87985715D02*
G01*
X217210798Y-87914453D01*
X217410013Y-87861151D01*
X217631236Y-87828488D01*
X217881646Y-87817187D01*
X218140821Y-87829572D01*
X218370625Y-87865497D01*
X218577096Y-87924704D01*
X218764340Y-88009040D01*
X218909989Y-88109009D01*
X219018748Y-88230772D01*
X219088525Y-88378802D01*
X219113607Y-88558709D01*
X219094724Y-88716217D01*
X219040650Y-88855573D01*
X218954117Y-88979295D01*
X218830031Y-89093536D01*
X218683092Y-89183023D01*
X218512770Y-89251259D01*
X218318311Y-89301194D01*
X218111012Y-89331111D01*
X217887020Y-89341263D01*
X217693914Y-89334080D01*
X217515003Y-89313010D01*
X217347732Y-89278248D01*
X217169953Y-89214644D01*
X216960362Y-89102271D01*
X216960362Y-89310000D01*
X215903524Y-89310000D01*
X215903524Y-88574951D01*
X217034124Y-88574951D01*
X217052796Y-88697733D01*
X217101463Y-88784393D01*
X217172609Y-88844106D01*
X217274403Y-88890557D01*
X217389759Y-88917740D01*
X217523586Y-88927027D01*
X217646590Y-88918057D01*
X217754796Y-88891496D01*
X217852581Y-88845450D01*
X217920156Y-88786735D01*
X217967328Y-88698319D01*
X217985694Y-88569455D01*
X217968309Y-88456663D01*
X217922642Y-88375705D01*
X217855268Y-88318740D01*
X217759677Y-88273657D01*
X217655907Y-88247874D01*
X217539951Y-88239239D01*
X217398930Y-88248668D01*
X217279244Y-88276028D01*
X217175540Y-88322281D01*
X217101671Y-88381791D01*
X217052560Y-88463688D01*
X217034124Y-88574951D01*
X215903524Y-88574951D01*
X215903524Y-87301346D01*
X217042428Y-87301346D01*
X217042428Y-87985715D01*
G37*
G36*
X219303872Y-87848450D02*
G01*
X220496510Y-87848450D01*
X221088799Y-88806493D01*
X221637857Y-87848450D01*
X222750628Y-87848450D01*
X221596336Y-89409406D01*
X221446635Y-89586061D01*
X221312395Y-89701283D01*
X221192602Y-89771130D01*
X221040888Y-89825607D01*
X220848759Y-89867049D01*
X220607125Y-89894123D01*
X220304780Y-89903998D01*
X220030604Y-89897302D01*
X219554466Y-89871514D01*
X219465073Y-89478771D01*
X219723168Y-89510189D01*
X220009734Y-89521025D01*
X220190013Y-89508585D01*
X220323342Y-89474253D01*
X220426868Y-89414883D01*
X220526064Y-89307557D01*
X219303872Y-87848450D01*
G37*
G36*
X224973726Y-87301346D02*
G01*
X226616259Y-87301346D01*
X227238590Y-88506196D01*
X227858234Y-87301346D01*
X229495150Y-87301346D01*
X229495150Y-89310000D01*
X228468597Y-89310000D01*
X228476413Y-87778597D01*
X227698255Y-89310000D01*
X226770621Y-89310000D01*
X225995394Y-87778597D01*
X226003210Y-89310000D01*
X224973726Y-89310000D01*
X224973726Y-87301346D01*
G37*
G36*
X232119996Y-87829339D02*
G01*
X232443276Y-87862175D01*
X232692533Y-87911465D01*
X232916079Y-87984049D01*
X233098874Y-88074494D01*
X233244766Y-88184528D01*
X233345136Y-88307505D01*
X233410529Y-88460359D01*
X233434298Y-88649567D01*
X233434298Y-88716001D01*
X231205582Y-88716001D01*
X231237111Y-88800910D01*
X231285422Y-88864449D01*
X231347487Y-88911151D01*
X231464312Y-88963408D01*
X231600520Y-88994445D01*
X231762456Y-89005184D01*
X231919794Y-88995123D01*
X232070202Y-88964640D01*
X232156775Y-88931691D01*
X232264619Y-88872194D01*
X233376413Y-88919699D01*
X233184146Y-89062793D01*
X232979264Y-89169169D01*
X232760921Y-89244542D01*
X232514356Y-89294548D01*
X232181068Y-89328496D01*
X231738032Y-89341263D01*
X231353262Y-89330661D01*
X231055236Y-89302124D01*
X230827250Y-89259563D01*
X230621620Y-89195701D01*
X230438520Y-89110125D01*
X230276238Y-89000055D01*
X230156938Y-88877238D01*
X230083433Y-88738959D01*
X230057885Y-88581912D01*
X230082156Y-88442449D01*
X231208269Y-88442449D01*
X232286845Y-88442449D01*
X232249793Y-88342466D01*
X232191574Y-88270960D01*
X232116364Y-88221165D01*
X232016614Y-88184080D01*
X231896872Y-88161305D01*
X231751465Y-88153265D01*
X231587488Y-88164886D01*
X231450640Y-88198542D01*
X231334054Y-88255725D01*
X231256336Y-88329195D01*
X231208269Y-88442449D01*
X230082156Y-88442449D01*
X230087086Y-88414122D01*
X230170749Y-88268546D01*
X230306366Y-88141062D01*
X230496057Y-88028702D01*
X230677261Y-87955045D01*
X230884436Y-87896802D01*
X231121366Y-87853781D01*
X231392963Y-87826707D01*
X231705059Y-87817187D01*
X232119996Y-87829339D01*
G37*
G36*
X235852026Y-87829339D02*
G01*
X236175307Y-87862175D01*
X236424563Y-87911465D01*
X236648110Y-87984049D01*
X236830905Y-88074494D01*
X236976796Y-88184528D01*
X237077167Y-88307505D01*
X237142560Y-88460359D01*
X237166329Y-88649567D01*
X237166329Y-88716001D01*
X234937613Y-88716001D01*
X234969142Y-88800910D01*
X235017453Y-88864449D01*
X235079518Y-88911151D01*
X235196342Y-88963408D01*
X235332551Y-88994445D01*
X235494487Y-89005184D01*
X235651825Y-88995123D01*
X235802233Y-88964640D01*
X235888805Y-88931691D01*
X235996650Y-88872194D01*
X237108443Y-88919699D01*
X236916177Y-89062793D01*
X236711294Y-89169169D01*
X236492951Y-89244542D01*
X236246387Y-89294548D01*
X235913098Y-89328496D01*
X235470062Y-89341263D01*
X235085293Y-89330661D01*
X234787267Y-89302124D01*
X234559281Y-89259563D01*
X234353651Y-89195701D01*
X234170550Y-89110125D01*
X234008269Y-89000055D01*
X233888969Y-88877238D01*
X233815464Y-88738959D01*
X233789916Y-88581912D01*
X233814186Y-88442449D01*
X234940300Y-88442449D01*
X236018876Y-88442449D01*
X235981824Y-88342466D01*
X235923604Y-88270960D01*
X235848394Y-88221165D01*
X235748645Y-88184080D01*
X235628903Y-88161305D01*
X235483496Y-88153265D01*
X235319518Y-88164886D01*
X235182671Y-88198542D01*
X235066085Y-88255725D01*
X234988367Y-88329195D01*
X234940300Y-88442449D01*
X233814186Y-88442449D01*
X233819116Y-88414122D01*
X233902780Y-88268546D01*
X234038397Y-88141062D01*
X234228087Y-88028702D01*
X234409292Y-87955045D01*
X234616467Y-87896802D01*
X234853397Y-87853781D01*
X235124994Y-87826707D01*
X235437090Y-87817187D01*
X235852026Y-87829339D01*
G37*
G36*
X237663852Y-88747264D02*
G01*
X238868213Y-88747264D01*
X238868213Y-89310000D01*
X237663852Y-89310000D01*
X237663852Y-88747264D01*
G37*
G36*
X239527913Y-88747264D02*
G01*
X240732274Y-88747264D01*
X240732274Y-89310000D01*
X239527913Y-89310000D01*
X239527913Y-88747264D01*
G37*
G36*
X165131167Y-163427613D02*
G01*
X166033339Y-163478415D01*
X166959324Y-163548269D01*
X166959324Y-165684417D01*
X166552660Y-165664877D01*
X166177137Y-165647292D01*
X165740247Y-165638011D01*
X165429754Y-165638011D01*
X165081707Y-165659993D01*
X164802355Y-165734242D01*
X164715525Y-165795539D01*
X164685118Y-165880300D01*
X164738876Y-165962524D01*
X164962639Y-166094745D01*
X165649572Y-166405422D01*
X166551744Y-166820146D01*
X167022017Y-167070512D01*
X167456664Y-167359434D01*
X167831580Y-167678951D01*
X168151840Y-168045757D01*
X168363003Y-168443478D01*
X168436688Y-168901095D01*
X168361680Y-169385037D01*
X168141765Y-169830195D01*
X167765152Y-170235836D01*
X167224938Y-170585394D01*
X166533543Y-170867281D01*
X165634918Y-171091953D01*
X164615101Y-171228107D01*
X163343309Y-171277578D01*
X161864113Y-171238011D01*
X160659691Y-171141779D01*
X159526709Y-171002072D01*
X159526709Y-169826775D01*
X161343876Y-169826775D01*
X161343876Y-170077857D01*
X161943797Y-170129148D01*
X162557458Y-170167250D01*
X163211418Y-170183370D01*
X163785036Y-170165299D01*
X164338904Y-170111563D01*
X164861278Y-170015580D01*
X165318928Y-169874647D01*
X165706971Y-169686596D01*
X166009525Y-169450642D01*
X166199145Y-169172664D01*
X166267812Y-168817076D01*
X166193215Y-168506328D01*
X165967393Y-168209888D01*
X165629824Y-167931499D01*
X165198028Y-167656434D01*
X164196022Y-167144501D01*
X163190352Y-166647711D01*
X162751643Y-166390299D01*
X162411828Y-166142616D01*
X162180447Y-165881087D01*
X162105914Y-165617006D01*
X162164882Y-165356574D01*
X162330061Y-165150818D01*
X162598674Y-164986859D01*
X162953080Y-164872429D01*
X163460839Y-164794736D01*
X164173124Y-164765087D01*
X164520254Y-164765087D01*
X164870132Y-164776322D01*
X165173299Y-164787557D01*
X165173299Y-164527194D01*
X164883871Y-164527194D01*
X164560554Y-164501793D01*
X164197854Y-164493489D01*
X163467566Y-164526258D01*
X162862123Y-164618231D01*
X162357789Y-164764110D01*
X161966014Y-164971583D01*
X161724368Y-165245757D01*
X161636967Y-165608702D01*
X161711655Y-165907459D01*
X161937386Y-166189511D01*
X162273007Y-166454124D01*
X162705835Y-166723426D01*
X163708757Y-167231451D01*
X164714427Y-167730195D01*
X165150372Y-167991351D01*
X165492035Y-168254340D01*
X165723465Y-168533980D01*
X165798866Y-168820983D01*
X165716567Y-169166430D01*
X165486076Y-169436716D01*
X165109185Y-169649944D01*
X164622540Y-169800720D01*
X164003725Y-169897873D01*
X163217829Y-169933265D01*
X162520529Y-169918814D01*
X161916320Y-169878066D01*
X161343876Y-169826775D01*
X159526709Y-169826775D01*
X159526709Y-168742826D01*
X160517725Y-168872274D01*
X161460197Y-168961667D01*
X162527233Y-168995373D01*
X163078981Y-168946817D01*
X163358612Y-168826250D01*
X163454134Y-168628520D01*
X163390326Y-168495553D01*
X163166538Y-168340802D01*
X162431062Y-168006189D01*
X161470272Y-167595373D01*
X160977531Y-167355311D01*
X160506734Y-167076601D01*
X160097571Y-166766629D01*
X159762098Y-166415680D01*
X159544808Y-166030092D01*
X159468091Y-165572554D01*
X159561362Y-165062280D01*
X159826212Y-164633196D01*
X160256094Y-164257753D01*
X160818143Y-163953712D01*
X161498101Y-163716683D01*
X162303750Y-163540453D01*
X163176342Y-163435273D01*
X164124581Y-163399281D01*
X165131167Y-163427613D01*
G37*
G36*
X178532772Y-169370530D02*
G01*
X171896999Y-169370530D01*
X172343415Y-168745268D01*
X174313171Y-168745268D01*
X176116599Y-168745268D01*
X175214427Y-167495233D01*
X174313171Y-168745268D01*
X172343415Y-168745268D01*
X175214427Y-164724054D01*
X178532772Y-169370530D01*
G37*
G36*
X182249537Y-171121263D02*
G01*
X177777145Y-171121263D01*
X177314610Y-170433475D01*
X173115160Y-170433475D01*
X172652625Y-171121263D01*
X168179317Y-171121263D01*
X168843448Y-170183370D01*
X170805233Y-170183370D01*
X171330966Y-170183370D01*
X171729387Y-169620635D01*
X178700383Y-169620635D01*
X179098804Y-170183370D01*
X179624537Y-170183370D01*
X175593614Y-164524752D01*
X174836156Y-164524752D01*
X170805233Y-170183370D01*
X168843448Y-170183370D01*
X173514497Y-163586859D01*
X176915273Y-163586859D01*
X182249537Y-171121263D01*
G37*
G36*
X187772386Y-164821326D02*
G01*
X188891001Y-164950842D01*
X189818437Y-165152587D01*
X190586156Y-165421612D01*
X191219546Y-165771701D01*
X191679866Y-166197880D01*
X191970559Y-166716024D01*
X192074511Y-167348688D01*
X191970752Y-167980991D01*
X191680302Y-168500132D01*
X191219943Y-168928299D01*
X190586156Y-169281137D01*
X189817782Y-169552581D01*
X188890100Y-169755967D01*
X187771710Y-169886460D01*
X186424258Y-169933265D01*
X185157554Y-169933265D01*
X185157554Y-168932847D01*
X187033339Y-168932847D01*
X188027064Y-168884230D01*
X188803212Y-168750773D01*
X189409211Y-168542547D01*
X189765285Y-168333049D01*
X190028226Y-168072354D01*
X190196570Y-167749281D01*
X190257344Y-167348688D01*
X190196374Y-166947691D01*
X190027778Y-166625634D01*
X189764874Y-166366958D01*
X189409211Y-166160202D01*
X188804001Y-165955037D01*
X188027870Y-165823307D01*
X187033339Y-165775275D01*
X187033339Y-168932847D01*
X185157554Y-168932847D01*
X185157554Y-164774856D01*
X186424258Y-164774856D01*
X187772386Y-164821326D01*
G37*
G36*
X187753670Y-163615160D02*
G01*
X188925125Y-163696015D01*
X189967916Y-163824263D01*
X190972246Y-164014222D01*
X191839009Y-164251999D01*
X192584673Y-164535987D01*
X193237449Y-164876683D01*
X193778098Y-165268501D01*
X194211331Y-165717145D01*
X194514755Y-166196830D01*
X194704614Y-166737335D01*
X194770952Y-167348199D01*
X194704590Y-167959726D01*
X194514708Y-168500539D01*
X194211331Y-168980230D01*
X193778181Y-169428584D01*
X193237544Y-169820417D01*
X192584673Y-170161388D01*
X191839315Y-170445898D01*
X190972504Y-170685630D01*
X189967916Y-170878974D01*
X188925325Y-171009880D01*
X187753939Y-171092386D01*
X186437997Y-171121263D01*
X182519731Y-171121263D01*
X182519731Y-170183370D01*
X184688607Y-170183370D01*
X186442576Y-170183370D01*
X187986900Y-170128923D01*
X189235583Y-169978834D01*
X190241816Y-169747619D01*
X191048691Y-169441849D01*
X191712569Y-169044735D01*
X192193535Y-168574204D01*
X192495137Y-168015513D01*
X192602076Y-167348199D01*
X192494980Y-166681053D01*
X192193182Y-166123650D01*
X191712252Y-165655240D01*
X191048691Y-165260900D01*
X190242503Y-164957549D01*
X189236552Y-164727971D01*
X187987644Y-164578861D01*
X186442576Y-164524752D01*
X184688607Y-164524752D01*
X184688607Y-170183370D01*
X182519731Y-170183370D01*
X182519731Y-163586859D01*
X186437997Y-163586859D01*
X187753670Y-163615160D01*
G37*
G36*
X201202693Y-164807296D02*
G01*
X202011898Y-164897857D01*
X202686328Y-165039041D01*
X203247705Y-165227194D01*
X203721010Y-165473984D01*
X204057988Y-165764392D01*
X204266774Y-166107104D01*
X204340387Y-166515331D01*
X204266601Y-166923866D01*
X204057600Y-167265698D01*
X203720661Y-167554322D01*
X203247705Y-167798583D01*
X202687032Y-167984111D01*
X202012860Y-168123502D01*
X201203412Y-168212989D01*
X200232527Y-168245059D01*
X198478558Y-168245059D01*
X198478558Y-167275903D01*
X200354344Y-167275903D01*
X200558592Y-167275903D01*
X201314348Y-167226830D01*
X201911392Y-167089302D01*
X202210884Y-166942263D01*
X202396654Y-166739916D01*
X202464602Y-166463063D01*
X202396631Y-166186230D01*
X202210853Y-165984065D01*
X201911392Y-165837313D01*
X201314283Y-165699416D01*
X200558592Y-165650223D01*
X200354344Y-165650223D01*
X200354344Y-167275903D01*
X198478558Y-167275903D01*
X198478558Y-164774856D01*
X200232527Y-164774856D01*
X201202693Y-164807296D01*
G37*
G36*
X202011003Y-163636310D02*
G01*
X203191835Y-163779323D01*
X204275641Y-164019935D01*
X205184856Y-164344989D01*
X205705002Y-164612301D01*
X206143504Y-164918411D01*
X206503768Y-165267250D01*
X206761909Y-165640854D01*
X206922377Y-166058648D01*
X206978210Y-166528032D01*
X206898287Y-167068868D01*
X206680539Y-167490348D01*
X206355791Y-167864439D01*
X206022915Y-168146873D01*
X205570083Y-168419827D01*
X205087770Y-168636824D01*
X207734752Y-171121263D01*
X202435293Y-171121263D01*
X200354344Y-169259644D01*
X200354344Y-171121263D01*
X195840736Y-171121263D01*
X195840736Y-170183370D01*
X198009612Y-170183370D01*
X198478558Y-170183370D01*
X198478558Y-168482463D01*
X200235275Y-168482463D01*
X201048132Y-168459601D01*
X201849110Y-168391116D01*
X203846711Y-170183370D01*
X204421903Y-170183370D01*
X202344617Y-168310516D01*
X203072370Y-168134854D01*
X203668135Y-167915437D01*
X204149877Y-167652037D01*
X204506337Y-167341177D01*
X204729759Y-166965625D01*
X204809333Y-166508981D01*
X204717324Y-166040059D01*
X204456707Y-165651200D01*
X204038866Y-165312560D01*
X203491338Y-165032777D01*
X202834735Y-164815034D01*
X202047862Y-164653224D01*
X201193371Y-164557841D01*
X200238939Y-164524752D01*
X198009612Y-164524752D01*
X198009612Y-170183370D01*
X195840736Y-170183370D01*
X195840736Y-163586859D01*
X200696894Y-163586859D01*
X202011003Y-163636310D01*
G37*
G36*
X212884002Y-171121263D02*
G01*
X208077302Y-171121263D01*
X208077302Y-170183370D01*
X210246179Y-170183370D01*
X210715125Y-170183370D01*
X210715125Y-164524752D01*
X210246179Y-164524752D01*
X210246179Y-170183370D01*
X208077302Y-170183370D01*
X208077302Y-163586859D01*
X212884002Y-163586859D01*
X212884002Y-171121263D01*
G37*
G36*
X223376674Y-165587697D02*
G01*
X220797470Y-165587697D01*
X220797470Y-171121263D01*
X216108007Y-171121263D01*
X216108007Y-165587697D01*
X213528803Y-165587697D01*
X213528803Y-164774856D01*
X215228733Y-164774856D01*
X218218265Y-164774856D01*
X218218265Y-170183370D01*
X218687212Y-170183370D01*
X218687212Y-164774856D01*
X221676744Y-164774856D01*
X221676744Y-164524752D01*
X215228733Y-164524752D01*
X215228733Y-164774856D01*
X213528803Y-164774856D01*
X213528803Y-163586859D01*
X223376674Y-163586859D01*
X223376674Y-165587697D01*
G37*
G36*
X232446938Y-169370530D02*
G01*
X225811165Y-169370530D01*
X226257581Y-168745268D01*
X228227337Y-168745268D01*
X230030765Y-168745268D01*
X229128593Y-167495233D01*
X228227337Y-168745268D01*
X226257581Y-168745268D01*
X229128593Y-164724054D01*
X232446938Y-169370530D01*
G37*
G36*
X236163703Y-171121263D02*
G01*
X231691311Y-171121263D01*
X231228777Y-170433475D01*
X227029326Y-170433475D01*
X226566791Y-171121263D01*
X222093483Y-171121263D01*
X222757614Y-170183370D01*
X224719399Y-170183370D01*
X225245132Y-170183370D01*
X225643553Y-169620635D01*
X232614549Y-169620635D01*
X233012971Y-170183370D01*
X233538703Y-170183370D01*
X229507780Y-164524752D01*
X228750322Y-164524752D01*
X224719399Y-170183370D01*
X222757614Y-170183370D01*
X227428663Y-163586859D01*
X230829439Y-163586859D01*
X236163703Y-171121263D01*
G37*
%TO.C,SW8*%
D11*
X197993750Y-90125000D02*
X197993750Y-89125000D01*
X197993750Y-104125000D02*
X197993750Y-103125000D01*
X197993750Y-104125000D02*
X198993750Y-104125000D01*
X198993750Y-89125000D02*
X197993750Y-89125000D01*
X211993750Y-104125000D02*
X212993750Y-104125000D01*
X212993750Y-89125000D02*
X211993750Y-89125000D01*
X212993750Y-89125000D02*
X212993750Y-90125000D01*
X212993750Y-103125000D02*
X212993750Y-104125000D01*
%TO.C,SW53*%
X293243750Y-147275000D02*
X293243750Y-146275000D01*
X293243750Y-161275000D02*
X293243750Y-160275000D01*
X293243750Y-161275000D02*
X294243750Y-161275000D01*
X294243750Y-146275000D02*
X293243750Y-146275000D01*
X307243750Y-161275000D02*
X308243750Y-161275000D01*
X308243750Y-146275000D02*
X307243750Y-146275000D01*
X308243750Y-146275000D02*
X308243750Y-147275000D01*
X308243750Y-160275000D02*
X308243750Y-161275000D01*
%TO.C,SW1*%
X64643750Y-90125000D02*
X64643750Y-89125000D01*
X64643750Y-104125000D02*
X64643750Y-103125000D01*
X64643750Y-104125000D02*
X65643750Y-104125000D01*
X65643750Y-89125000D02*
X64643750Y-89125000D01*
X78643750Y-104125000D02*
X79643750Y-104125000D01*
X79643750Y-89125000D02*
X78643750Y-89125000D01*
X79643750Y-89125000D02*
X79643750Y-90125000D01*
X79643750Y-103125000D02*
X79643750Y-104125000D01*
%TO.C,SW6*%
X159893750Y-90125000D02*
X159893750Y-89125000D01*
X159893750Y-104125000D02*
X159893750Y-103125000D01*
X159893750Y-104125000D02*
X160893750Y-104125000D01*
X160893750Y-89125000D02*
X159893750Y-89125000D01*
X173893750Y-104125000D02*
X174893750Y-104125000D01*
X174893750Y-89125000D02*
X173893750Y-89125000D01*
X174893750Y-89125000D02*
X174893750Y-90125000D01*
X174893750Y-103125000D02*
X174893750Y-104125000D01*
%TO.C,SW52*%
X274193750Y-147275000D02*
X274193750Y-146275000D01*
X274193750Y-161275000D02*
X274193750Y-160275000D01*
X274193750Y-161275000D02*
X275193750Y-161275000D01*
X275193750Y-146275000D02*
X274193750Y-146275000D01*
X288193750Y-161275000D02*
X289193750Y-161275000D01*
X289193750Y-146275000D02*
X288193750Y-146275000D01*
X289193750Y-146275000D02*
X289193750Y-147275000D01*
X289193750Y-160275000D02*
X289193750Y-161275000D01*
%TO.C,SW51*%
X255143750Y-147275000D02*
X255143750Y-146275000D01*
X255143750Y-161275000D02*
X255143750Y-160275000D01*
X255143750Y-161275000D02*
X256143750Y-161275000D01*
X256143750Y-146275000D02*
X255143750Y-146275000D01*
X269143750Y-161275000D02*
X270143750Y-161275000D01*
X270143750Y-146275000D02*
X269143750Y-146275000D01*
X270143750Y-146275000D02*
X270143750Y-147275000D01*
X270143750Y-160275000D02*
X270143750Y-161275000D01*
%TO.C,SW3*%
X102743750Y-90125000D02*
X102743750Y-89125000D01*
X102743750Y-104125000D02*
X102743750Y-103125000D01*
X102743750Y-104125000D02*
X103743750Y-104125000D01*
X103743750Y-89125000D02*
X102743750Y-89125000D01*
X116743750Y-104125000D02*
X117743750Y-104125000D01*
X117743750Y-89125000D02*
X116743750Y-89125000D01*
X117743750Y-89125000D02*
X117743750Y-90125000D01*
X117743750Y-103125000D02*
X117743750Y-104125000D01*
%TO.C,SW32*%
X136081250Y-128225000D02*
X136081250Y-127225000D01*
X136081250Y-142225000D02*
X136081250Y-141225000D01*
X136081250Y-142225000D02*
X137081250Y-142225000D01*
X137081250Y-127225000D02*
X136081250Y-127225000D01*
X150081250Y-142225000D02*
X151081250Y-142225000D01*
X151081250Y-127225000D02*
X150081250Y-127225000D01*
X151081250Y-127225000D02*
X151081250Y-128225000D01*
X151081250Y-141225000D02*
X151081250Y-142225000D01*
%TO.C,SW54*%
X312293750Y-147275000D02*
X312293750Y-146275000D01*
X312293750Y-161275000D02*
X312293750Y-160275000D01*
X312293750Y-161275000D02*
X313293750Y-161275000D01*
X313293750Y-146275000D02*
X312293750Y-146275000D01*
X326293750Y-161275000D02*
X327293750Y-161275000D01*
X327293750Y-146275000D02*
X326293750Y-146275000D01*
X327293750Y-146275000D02*
X327293750Y-147275000D01*
X327293750Y-160275000D02*
X327293750Y-161275000D01*
%TO.C,SW63*%
X312293750Y-166325000D02*
X312293750Y-165325000D01*
X312293750Y-180325000D02*
X312293750Y-179325000D01*
X312293750Y-180325000D02*
X313293750Y-180325000D01*
X313293750Y-165325000D02*
X312293750Y-165325000D01*
X326293750Y-180325000D02*
X327293750Y-180325000D01*
X327293750Y-165325000D02*
X326293750Y-165325000D01*
X327293750Y-165325000D02*
X327293750Y-166325000D01*
X327293750Y-179325000D02*
X327293750Y-180325000D01*
%TO.C,SW40*%
X288481250Y-128225000D02*
X288481250Y-127225000D01*
X288481250Y-142225000D02*
X288481250Y-141225000D01*
X288481250Y-142225000D02*
X289481250Y-142225000D01*
X289481250Y-127225000D02*
X288481250Y-127225000D01*
X302481250Y-142225000D02*
X303481250Y-142225000D01*
X303481250Y-127225000D02*
X302481250Y-127225000D01*
X303481250Y-127225000D02*
X303481250Y-128225000D01*
X303481250Y-141225000D02*
X303481250Y-142225000D01*
%TO.C,SW49*%
X217043750Y-147275000D02*
X217043750Y-146275000D01*
X217043750Y-161275000D02*
X217043750Y-160275000D01*
X217043750Y-161275000D02*
X218043750Y-161275000D01*
X218043750Y-146275000D02*
X217043750Y-146275000D01*
X231043750Y-161275000D02*
X232043750Y-161275000D01*
X232043750Y-146275000D02*
X231043750Y-146275000D01*
X232043750Y-146275000D02*
X232043750Y-147275000D01*
X232043750Y-160275000D02*
X232043750Y-161275000D01*
%TO.C,SW55*%
X331343750Y-147275000D02*
X331343750Y-146275000D01*
X331343750Y-161275000D02*
X331343750Y-160275000D01*
X331343750Y-161275000D02*
X332343750Y-161275000D01*
X332343750Y-146275000D02*
X331343750Y-146275000D01*
X345343750Y-161275000D02*
X346343750Y-161275000D01*
X346343750Y-146275000D02*
X345343750Y-146275000D01*
X346343750Y-146275000D02*
X346343750Y-147275000D01*
X346343750Y-160275000D02*
X346343750Y-161275000D01*
%TO.C,SW16*%
X93218750Y-109175000D02*
X93218750Y-108175000D01*
X93218750Y-123175000D02*
X93218750Y-122175000D01*
X93218750Y-123175000D02*
X94218750Y-123175000D01*
X94218750Y-108175000D02*
X93218750Y-108175000D01*
X107218750Y-123175000D02*
X108218750Y-123175000D01*
X108218750Y-108175000D02*
X107218750Y-108175000D01*
X108218750Y-108175000D02*
X108218750Y-109175000D01*
X108218750Y-122175000D02*
X108218750Y-123175000D01*
%TO.C,SW14*%
X321818750Y-90125000D02*
X321818750Y-89125000D01*
X321818750Y-104125000D02*
X321818750Y-103125000D01*
X321818750Y-104125000D02*
X322818750Y-104125000D01*
X322818750Y-89125000D02*
X321818750Y-89125000D01*
X335818750Y-104125000D02*
X336818750Y-104125000D01*
X336818750Y-89125000D02*
X335818750Y-89125000D01*
X336818750Y-89125000D02*
X336818750Y-90125000D01*
X336818750Y-103125000D02*
X336818750Y-104125000D01*
%TO.C,SW64*%
X331343750Y-166325000D02*
X331343750Y-165325000D01*
X331343750Y-180325000D02*
X331343750Y-179325000D01*
X331343750Y-180325000D02*
X332343750Y-180325000D01*
X332343750Y-165325000D02*
X331343750Y-165325000D01*
X345343750Y-180325000D02*
X346343750Y-180325000D01*
X346343750Y-165325000D02*
X345343750Y-165325000D01*
X346343750Y-165325000D02*
X346343750Y-166325000D01*
X346343750Y-179325000D02*
X346343750Y-180325000D01*
%TO.C,SW11*%
X255143750Y-90125000D02*
X255143750Y-89125000D01*
X255143750Y-104125000D02*
X255143750Y-103125000D01*
X255143750Y-104125000D02*
X256143750Y-104125000D01*
X256143750Y-89125000D02*
X255143750Y-89125000D01*
X269143750Y-104125000D02*
X270143750Y-104125000D01*
X270143750Y-89125000D02*
X269143750Y-89125000D01*
X270143750Y-89125000D02*
X270143750Y-90125000D01*
X270143750Y-103125000D02*
X270143750Y-104125000D01*
%TO.C,SW15*%
X69406250Y-109175000D02*
X69406250Y-108175000D01*
X69406250Y-123175000D02*
X69406250Y-122175000D01*
X69406250Y-123175000D02*
X70406250Y-123175000D01*
X70406250Y-108175000D02*
X69406250Y-108175000D01*
X83406250Y-123175000D02*
X84406250Y-123175000D01*
X84406250Y-108175000D02*
X83406250Y-108175000D01*
X84406250Y-108175000D02*
X84406250Y-109175000D01*
X84406250Y-122175000D02*
X84406250Y-123175000D01*
%TO.C,SW10*%
X236093750Y-90125000D02*
X236093750Y-89125000D01*
X236093750Y-104125000D02*
X236093750Y-103125000D01*
X236093750Y-104125000D02*
X237093750Y-104125000D01*
X237093750Y-89125000D02*
X236093750Y-89125000D01*
X250093750Y-104125000D02*
X251093750Y-104125000D01*
X251093750Y-89125000D02*
X250093750Y-89125000D01*
X251093750Y-89125000D02*
X251093750Y-90125000D01*
X251093750Y-103125000D02*
X251093750Y-104125000D01*
%TO.C,SW59*%
X186087500Y-166325000D02*
X186087500Y-165325000D01*
X186087500Y-180325000D02*
X186087500Y-179325000D01*
X186087500Y-180325000D02*
X187087500Y-180325000D01*
X187087500Y-165325000D02*
X186087500Y-165325000D01*
X200087500Y-180325000D02*
X201087500Y-180325000D01*
X201087500Y-165325000D02*
X200087500Y-165325000D01*
X201087500Y-165325000D02*
X201087500Y-166325000D01*
X201087500Y-179325000D02*
X201087500Y-180325000D01*
%TO.C,SW27*%
X302768750Y-109175000D02*
X302768750Y-108175000D01*
X302768750Y-123175000D02*
X302768750Y-122175000D01*
X302768750Y-123175000D02*
X303768750Y-123175000D01*
X303768750Y-108175000D02*
X302768750Y-108175000D01*
X316768750Y-123175000D02*
X317768750Y-123175000D01*
X317768750Y-108175000D02*
X316768750Y-108175000D01*
X317768750Y-108175000D02*
X317768750Y-109175000D01*
X317768750Y-122175000D02*
X317768750Y-123175000D01*
%TO.C,SW46*%
X159893750Y-147275000D02*
X159893750Y-146275000D01*
X159893750Y-161275000D02*
X159893750Y-160275000D01*
X159893750Y-161275000D02*
X160893750Y-161275000D01*
X160893750Y-146275000D02*
X159893750Y-146275000D01*
X173893750Y-161275000D02*
X174893750Y-161275000D01*
X174893750Y-146275000D02*
X173893750Y-146275000D01*
X174893750Y-146275000D02*
X174893750Y-147275000D01*
X174893750Y-160275000D02*
X174893750Y-161275000D01*
%TO.C,SW5*%
X140843750Y-90125000D02*
X140843750Y-89125000D01*
X140843750Y-104125000D02*
X140843750Y-103125000D01*
X140843750Y-104125000D02*
X141843750Y-104125000D01*
X141843750Y-89125000D02*
X140843750Y-89125000D01*
X154843750Y-104125000D02*
X155843750Y-104125000D01*
X155843750Y-89125000D02*
X154843750Y-89125000D01*
X155843750Y-89125000D02*
X155843750Y-90125000D01*
X155843750Y-103125000D02*
X155843750Y-104125000D01*
%TO.C,SW34*%
X174181250Y-128225000D02*
X174181250Y-127225000D01*
X174181250Y-142225000D02*
X174181250Y-141225000D01*
X174181250Y-142225000D02*
X175181250Y-142225000D01*
X175181250Y-127225000D02*
X174181250Y-127225000D01*
X188181250Y-142225000D02*
X189181250Y-142225000D01*
X189181250Y-127225000D02*
X188181250Y-127225000D01*
X189181250Y-127225000D02*
X189181250Y-128225000D01*
X189181250Y-141225000D02*
X189181250Y-142225000D01*
%TO.C,SW31*%
X117031250Y-128225000D02*
X117031250Y-127225000D01*
X117031250Y-142225000D02*
X117031250Y-141225000D01*
X117031250Y-142225000D02*
X118031250Y-142225000D01*
X118031250Y-127225000D02*
X117031250Y-127225000D01*
X131031250Y-142225000D02*
X132031250Y-142225000D01*
X132031250Y-127225000D02*
X131031250Y-127225000D01*
X132031250Y-127225000D02*
X132031250Y-128225000D01*
X132031250Y-141225000D02*
X132031250Y-142225000D01*
%TO.C,SW4*%
X121793750Y-90125000D02*
X121793750Y-89125000D01*
X121793750Y-104125000D02*
X121793750Y-103125000D01*
X121793750Y-104125000D02*
X122793750Y-104125000D01*
X122793750Y-89125000D02*
X121793750Y-89125000D01*
X135793750Y-104125000D02*
X136793750Y-104125000D01*
X136793750Y-89125000D02*
X135793750Y-89125000D01*
X136793750Y-89125000D02*
X136793750Y-90125000D01*
X136793750Y-103125000D02*
X136793750Y-104125000D01*
%TO.C,SW37*%
X231331250Y-128225000D02*
X231331250Y-127225000D01*
X231331250Y-142225000D02*
X231331250Y-141225000D01*
X231331250Y-142225000D02*
X232331250Y-142225000D01*
X232331250Y-127225000D02*
X231331250Y-127225000D01*
X245331250Y-142225000D02*
X246331250Y-142225000D01*
X246331250Y-127225000D02*
X245331250Y-127225000D01*
X246331250Y-127225000D02*
X246331250Y-128225000D01*
X246331250Y-141225000D02*
X246331250Y-142225000D01*
%TO.C,SW9*%
X217043750Y-90125000D02*
X217043750Y-89125000D01*
X217043750Y-104125000D02*
X217043750Y-103125000D01*
X217043750Y-104125000D02*
X218043750Y-104125000D01*
X218043750Y-89125000D02*
X217043750Y-89125000D01*
X231043750Y-104125000D02*
X232043750Y-104125000D01*
X232043750Y-89125000D02*
X231043750Y-89125000D01*
X232043750Y-89125000D02*
X232043750Y-90125000D01*
X232043750Y-103125000D02*
X232043750Y-104125000D01*
%TO.C,SW24*%
X245618750Y-109175000D02*
X245618750Y-108175000D01*
X245618750Y-123175000D02*
X245618750Y-122175000D01*
X245618750Y-123175000D02*
X246618750Y-123175000D01*
X246618750Y-108175000D02*
X245618750Y-108175000D01*
X259618750Y-123175000D02*
X260618750Y-123175000D01*
X260618750Y-108175000D02*
X259618750Y-108175000D01*
X260618750Y-108175000D02*
X260618750Y-109175000D01*
X260618750Y-122175000D02*
X260618750Y-123175000D01*
%TO.C,SW26*%
X283718750Y-109175000D02*
X283718750Y-108175000D01*
X283718750Y-123175000D02*
X283718750Y-122175000D01*
X283718750Y-123175000D02*
X284718750Y-123175000D01*
X284718750Y-108175000D02*
X283718750Y-108175000D01*
X297718750Y-123175000D02*
X298718750Y-123175000D01*
X298718750Y-108175000D02*
X297718750Y-108175000D01*
X298718750Y-108175000D02*
X298718750Y-109175000D01*
X298718750Y-122175000D02*
X298718750Y-123175000D01*
%TO.C,SW17*%
X112268750Y-109175000D02*
X112268750Y-108175000D01*
X112268750Y-123175000D02*
X112268750Y-122175000D01*
X112268750Y-123175000D02*
X113268750Y-123175000D01*
X113268750Y-108175000D02*
X112268750Y-108175000D01*
X126268750Y-123175000D02*
X127268750Y-123175000D01*
X127268750Y-108175000D02*
X126268750Y-108175000D01*
X127268750Y-108175000D02*
X127268750Y-109175000D01*
X127268750Y-122175000D02*
X127268750Y-123175000D01*
%TO.C,SW36*%
X212281250Y-128225000D02*
X212281250Y-127225000D01*
X212281250Y-142225000D02*
X212281250Y-141225000D01*
X212281250Y-142225000D02*
X213281250Y-142225000D01*
X213281250Y-127225000D02*
X212281250Y-127225000D01*
X226281250Y-142225000D02*
X227281250Y-142225000D01*
X227281250Y-127225000D02*
X226281250Y-127225000D01*
X227281250Y-127225000D02*
X227281250Y-128225000D01*
X227281250Y-141225000D02*
X227281250Y-142225000D01*
%TO.C,SW28*%
X326581250Y-109175000D02*
X326581250Y-108175000D01*
X326581250Y-123175000D02*
X326581250Y-122175000D01*
X326581250Y-123175000D02*
X327581250Y-123175000D01*
X327581250Y-108175000D02*
X326581250Y-108175000D01*
X340581250Y-123175000D02*
X341581250Y-123175000D01*
X341581250Y-108175000D02*
X340581250Y-108175000D01*
X341581250Y-108175000D02*
X341581250Y-109175000D01*
X341581250Y-122175000D02*
X341581250Y-123175000D01*
%TO.C,SW56*%
X67025000Y-166325000D02*
X67025000Y-165325000D01*
X67025000Y-180325000D02*
X67025000Y-179325000D01*
X67025000Y-180325000D02*
X68025000Y-180325000D01*
X68025000Y-165325000D02*
X67025000Y-165325000D01*
X81025000Y-180325000D02*
X82025000Y-180325000D01*
X82025000Y-165325000D02*
X81025000Y-165325000D01*
X82025000Y-165325000D02*
X82025000Y-166325000D01*
X82025000Y-179325000D02*
X82025000Y-180325000D01*
%TO.C,SW50*%
X236093750Y-147275000D02*
X236093750Y-146275000D01*
X236093750Y-161275000D02*
X236093750Y-160275000D01*
X236093750Y-161275000D02*
X237093750Y-161275000D01*
X237093750Y-146275000D02*
X236093750Y-146275000D01*
X250093750Y-161275000D02*
X251093750Y-161275000D01*
X251093750Y-146275000D02*
X250093750Y-146275000D01*
X251093750Y-146275000D02*
X251093750Y-147275000D01*
X251093750Y-160275000D02*
X251093750Y-161275000D01*
%TO.C,SW21*%
X188468750Y-109175000D02*
X188468750Y-108175000D01*
X188468750Y-123175000D02*
X188468750Y-122175000D01*
X188468750Y-123175000D02*
X189468750Y-123175000D01*
X189468750Y-108175000D02*
X188468750Y-108175000D01*
X202468750Y-123175000D02*
X203468750Y-123175000D01*
X203468750Y-108175000D02*
X202468750Y-108175000D01*
X203468750Y-108175000D02*
X203468750Y-109175000D01*
X203468750Y-122175000D02*
X203468750Y-123175000D01*
%TO.C,SW2*%
X83693750Y-90125000D02*
X83693750Y-89125000D01*
X83693750Y-104125000D02*
X83693750Y-103125000D01*
X83693750Y-104125000D02*
X84693750Y-104125000D01*
X84693750Y-89125000D02*
X83693750Y-89125000D01*
X97693750Y-104125000D02*
X98693750Y-104125000D01*
X98693750Y-89125000D02*
X97693750Y-89125000D01*
X98693750Y-89125000D02*
X98693750Y-90125000D01*
X98693750Y-103125000D02*
X98693750Y-104125000D01*
%TO.C,SW30*%
X97981250Y-128225000D02*
X97981250Y-127225000D01*
X97981250Y-142225000D02*
X97981250Y-141225000D01*
X97981250Y-142225000D02*
X98981250Y-142225000D01*
X98981250Y-127225000D02*
X97981250Y-127225000D01*
X111981250Y-142225000D02*
X112981250Y-142225000D01*
X112981250Y-127225000D02*
X111981250Y-127225000D01*
X112981250Y-127225000D02*
X112981250Y-128225000D01*
X112981250Y-141225000D02*
X112981250Y-142225000D01*
%TO.C,SW7*%
X178943750Y-90125000D02*
X178943750Y-89125000D01*
X178943750Y-104125000D02*
X178943750Y-103125000D01*
X178943750Y-104125000D02*
X179943750Y-104125000D01*
X179943750Y-89125000D02*
X178943750Y-89125000D01*
X192943750Y-104125000D02*
X193943750Y-104125000D01*
X193943750Y-89125000D02*
X192943750Y-89125000D01*
X193943750Y-89125000D02*
X193943750Y-90125000D01*
X193943750Y-103125000D02*
X193943750Y-104125000D01*
%TO.C,SW22*%
X207518750Y-109175000D02*
X207518750Y-108175000D01*
X207518750Y-123175000D02*
X207518750Y-122175000D01*
X207518750Y-123175000D02*
X208518750Y-123175000D01*
X208518750Y-108175000D02*
X207518750Y-108175000D01*
X221518750Y-123175000D02*
X222518750Y-123175000D01*
X222518750Y-108175000D02*
X221518750Y-108175000D01*
X222518750Y-108175000D02*
X222518750Y-109175000D01*
X222518750Y-122175000D02*
X222518750Y-123175000D01*
%TO.C,SW39*%
X269431250Y-128225000D02*
X269431250Y-127225000D01*
X269431250Y-142225000D02*
X269431250Y-141225000D01*
X269431250Y-142225000D02*
X270431250Y-142225000D01*
X270431250Y-127225000D02*
X269431250Y-127225000D01*
X283431250Y-142225000D02*
X284431250Y-142225000D01*
X284431250Y-127225000D02*
X283431250Y-127225000D01*
X284431250Y-127225000D02*
X284431250Y-128225000D01*
X284431250Y-141225000D02*
X284431250Y-142225000D01*
%TO.C,SW61*%
X274193750Y-166325000D02*
X274193750Y-165325000D01*
X274193750Y-180325000D02*
X274193750Y-179325000D01*
X274193750Y-180325000D02*
X275193750Y-180325000D01*
X275193750Y-165325000D02*
X274193750Y-165325000D01*
X288193750Y-180325000D02*
X289193750Y-180325000D01*
X289193750Y-165325000D02*
X288193750Y-165325000D01*
X289193750Y-165325000D02*
X289193750Y-166325000D01*
X289193750Y-179325000D02*
X289193750Y-180325000D01*
%TO.C,SW58*%
X114650000Y-166325000D02*
X114650000Y-165325000D01*
X114650000Y-180325000D02*
X114650000Y-179325000D01*
X114650000Y-180325000D02*
X115650000Y-180325000D01*
X115650000Y-165325000D02*
X114650000Y-165325000D01*
X128650000Y-180325000D02*
X129650000Y-180325000D01*
X129650000Y-165325000D02*
X128650000Y-165325000D01*
X129650000Y-165325000D02*
X129650000Y-166325000D01*
X129650000Y-179325000D02*
X129650000Y-180325000D01*
%TO.C,SW23*%
X226568750Y-109175000D02*
X226568750Y-108175000D01*
X226568750Y-123175000D02*
X226568750Y-122175000D01*
X226568750Y-123175000D02*
X227568750Y-123175000D01*
X227568750Y-108175000D02*
X226568750Y-108175000D01*
X240568750Y-123175000D02*
X241568750Y-123175000D01*
X241568750Y-108175000D02*
X240568750Y-108175000D01*
X241568750Y-108175000D02*
X241568750Y-109175000D01*
X241568750Y-122175000D02*
X241568750Y-123175000D01*
%TO.C,SW19*%
X150368750Y-109175000D02*
X150368750Y-108175000D01*
X150368750Y-123175000D02*
X150368750Y-122175000D01*
X150368750Y-123175000D02*
X151368750Y-123175000D01*
X151368750Y-108175000D02*
X150368750Y-108175000D01*
X164368750Y-123175000D02*
X165368750Y-123175000D01*
X165368750Y-108175000D02*
X164368750Y-108175000D01*
X165368750Y-108175000D02*
X165368750Y-109175000D01*
X165368750Y-122175000D02*
X165368750Y-123175000D01*
%TO.C,SW42*%
X74168750Y-147275000D02*
X74168750Y-146275000D01*
X74168750Y-161275000D02*
X74168750Y-160275000D01*
X74168750Y-161275000D02*
X75168750Y-161275000D01*
X75168750Y-146275000D02*
X74168750Y-146275000D01*
X88168750Y-161275000D02*
X89168750Y-161275000D01*
X89168750Y-146275000D02*
X88168750Y-146275000D01*
X89168750Y-146275000D02*
X89168750Y-147275000D01*
X89168750Y-160275000D02*
X89168750Y-161275000D01*
%TO.C,SW38*%
X250381250Y-128225000D02*
X250381250Y-127225000D01*
X250381250Y-142225000D02*
X250381250Y-141225000D01*
X250381250Y-142225000D02*
X251381250Y-142225000D01*
X251381250Y-127225000D02*
X250381250Y-127225000D01*
X264381250Y-142225000D02*
X265381250Y-142225000D01*
X265381250Y-127225000D02*
X264381250Y-127225000D01*
X265381250Y-127225000D02*
X265381250Y-128225000D01*
X265381250Y-141225000D02*
X265381250Y-142225000D01*
%TO.C,SW43*%
X102743750Y-147275000D02*
X102743750Y-146275000D01*
X102743750Y-161275000D02*
X102743750Y-160275000D01*
X102743750Y-161275000D02*
X103743750Y-161275000D01*
X103743750Y-146275000D02*
X102743750Y-146275000D01*
X116743750Y-161275000D02*
X117743750Y-161275000D01*
X117743750Y-146275000D02*
X116743750Y-146275000D01*
X117743750Y-146275000D02*
X117743750Y-147275000D01*
X117743750Y-160275000D02*
X117743750Y-161275000D01*
%TO.C,SW57*%
X90837500Y-166325000D02*
X90837500Y-165325000D01*
X90837500Y-180325000D02*
X90837500Y-179325000D01*
X90837500Y-180325000D02*
X91837500Y-180325000D01*
X91837500Y-165325000D02*
X90837500Y-165325000D01*
X104837500Y-180325000D02*
X105837500Y-180325000D01*
X105837500Y-165325000D02*
X104837500Y-165325000D01*
X105837500Y-165325000D02*
X105837500Y-166325000D01*
X105837500Y-179325000D02*
X105837500Y-180325000D01*
%TO.C,SW44*%
X121793750Y-147275000D02*
X121793750Y-146275000D01*
X121793750Y-161275000D02*
X121793750Y-160275000D01*
X121793750Y-161275000D02*
X122793750Y-161275000D01*
X122793750Y-146275000D02*
X121793750Y-146275000D01*
X135793750Y-161275000D02*
X136793750Y-161275000D01*
X136793750Y-146275000D02*
X135793750Y-146275000D01*
X136793750Y-146275000D02*
X136793750Y-147275000D01*
X136793750Y-160275000D02*
X136793750Y-161275000D01*
%TO.C,SW20*%
X169418750Y-109175000D02*
X169418750Y-108175000D01*
X169418750Y-123175000D02*
X169418750Y-122175000D01*
X169418750Y-123175000D02*
X170418750Y-123175000D01*
X170418750Y-108175000D02*
X169418750Y-108175000D01*
X183418750Y-123175000D02*
X184418750Y-123175000D01*
X184418750Y-108175000D02*
X183418750Y-108175000D01*
X184418750Y-108175000D02*
X184418750Y-109175000D01*
X184418750Y-122175000D02*
X184418750Y-123175000D01*
%TO.C,SW12*%
X274193750Y-90125000D02*
X274193750Y-89125000D01*
X274193750Y-104125000D02*
X274193750Y-103125000D01*
X274193750Y-104125000D02*
X275193750Y-104125000D01*
X275193750Y-89125000D02*
X274193750Y-89125000D01*
X288193750Y-104125000D02*
X289193750Y-104125000D01*
X289193750Y-89125000D02*
X288193750Y-89125000D01*
X289193750Y-89125000D02*
X289193750Y-90125000D01*
X289193750Y-103125000D02*
X289193750Y-104125000D01*
%TO.C,SW35*%
X193231250Y-128225000D02*
X193231250Y-127225000D01*
X193231250Y-142225000D02*
X193231250Y-141225000D01*
X193231250Y-142225000D02*
X194231250Y-142225000D01*
X194231250Y-127225000D02*
X193231250Y-127225000D01*
X207231250Y-142225000D02*
X208231250Y-142225000D01*
X208231250Y-127225000D02*
X207231250Y-127225000D01*
X208231250Y-127225000D02*
X208231250Y-128225000D01*
X208231250Y-141225000D02*
X208231250Y-142225000D01*
%TO.C,SW45*%
X140843750Y-147275000D02*
X140843750Y-146275000D01*
X140843750Y-161275000D02*
X140843750Y-160275000D01*
X140843750Y-161275000D02*
X141843750Y-161275000D01*
X141843750Y-146275000D02*
X140843750Y-146275000D01*
X154843750Y-161275000D02*
X155843750Y-161275000D01*
X155843750Y-146275000D02*
X154843750Y-146275000D01*
X155843750Y-146275000D02*
X155843750Y-147275000D01*
X155843750Y-160275000D02*
X155843750Y-161275000D01*
%TO.C,SW18*%
X131318750Y-109175000D02*
X131318750Y-108175000D01*
X131318750Y-123175000D02*
X131318750Y-122175000D01*
X131318750Y-123175000D02*
X132318750Y-123175000D01*
X132318750Y-108175000D02*
X131318750Y-108175000D01*
X145318750Y-123175000D02*
X146318750Y-123175000D01*
X146318750Y-108175000D02*
X145318750Y-108175000D01*
X146318750Y-108175000D02*
X146318750Y-109175000D01*
X146318750Y-122175000D02*
X146318750Y-123175000D01*
%TO.C,SW62*%
X293243750Y-166325000D02*
X293243750Y-165325000D01*
X293243750Y-180325000D02*
X293243750Y-179325000D01*
X293243750Y-180325000D02*
X294243750Y-180325000D01*
X294243750Y-165325000D02*
X293243750Y-165325000D01*
X307243750Y-180325000D02*
X308243750Y-180325000D01*
X308243750Y-165325000D02*
X307243750Y-165325000D01*
X308243750Y-165325000D02*
X308243750Y-166325000D01*
X308243750Y-179325000D02*
X308243750Y-180325000D01*
%TO.C,SW33*%
X155131250Y-128225000D02*
X155131250Y-127225000D01*
X155131250Y-142225000D02*
X155131250Y-141225000D01*
X155131250Y-142225000D02*
X156131250Y-142225000D01*
X156131250Y-127225000D02*
X155131250Y-127225000D01*
X169131250Y-142225000D02*
X170131250Y-142225000D01*
X170131250Y-127225000D02*
X169131250Y-127225000D01*
X170131250Y-127225000D02*
X170131250Y-128225000D01*
X170131250Y-141225000D02*
X170131250Y-142225000D01*
%TO.C,SW29*%
X71787500Y-128225000D02*
X71787500Y-127225000D01*
X71787500Y-142225000D02*
X71787500Y-141225000D01*
X71787500Y-142225000D02*
X72787500Y-142225000D01*
X72787500Y-127225000D02*
X71787500Y-127225000D01*
X85787500Y-142225000D02*
X86787500Y-142225000D01*
X86787500Y-127225000D02*
X85787500Y-127225000D01*
X86787500Y-127225000D02*
X86787500Y-128225000D01*
X86787500Y-141225000D02*
X86787500Y-142225000D01*
%TO.C,SW13*%
X293243750Y-90125000D02*
X293243750Y-89125000D01*
X293243750Y-104125000D02*
X293243750Y-103125000D01*
X293243750Y-104125000D02*
X294243750Y-104125000D01*
X294243750Y-89125000D02*
X293243750Y-89125000D01*
X307243750Y-104125000D02*
X308243750Y-104125000D01*
X308243750Y-89125000D02*
X307243750Y-89125000D01*
X308243750Y-89125000D02*
X308243750Y-90125000D01*
X308243750Y-103125000D02*
X308243750Y-104125000D01*
%TO.C,SW47*%
X178943750Y-147275000D02*
X178943750Y-146275000D01*
X178943750Y-161275000D02*
X178943750Y-160275000D01*
X178943750Y-161275000D02*
X179943750Y-161275000D01*
X179943750Y-146275000D02*
X178943750Y-146275000D01*
X192943750Y-161275000D02*
X193943750Y-161275000D01*
X193943750Y-146275000D02*
X192943750Y-146275000D01*
X193943750Y-146275000D02*
X193943750Y-147275000D01*
X193943750Y-160275000D02*
X193943750Y-161275000D01*
%TO.C,SW60*%
X255143750Y-166325000D02*
X255143750Y-165325000D01*
X255143750Y-180325000D02*
X255143750Y-179325000D01*
X255143750Y-180325000D02*
X256143750Y-180325000D01*
X256143750Y-165325000D02*
X255143750Y-165325000D01*
X269143750Y-180325000D02*
X270143750Y-180325000D01*
X270143750Y-165325000D02*
X269143750Y-165325000D01*
X270143750Y-165325000D02*
X270143750Y-166325000D01*
X270143750Y-179325000D02*
X270143750Y-180325000D01*
%TO.C,SW41*%
X319437500Y-128225000D02*
X319437500Y-127225000D01*
X319437500Y-142225000D02*
X319437500Y-141225000D01*
X319437500Y-142225000D02*
X320437500Y-142225000D01*
X320437500Y-127225000D02*
X319437500Y-127225000D01*
X333437500Y-142225000D02*
X334437500Y-142225000D01*
X334437500Y-127225000D02*
X333437500Y-127225000D01*
X334437500Y-127225000D02*
X334437500Y-128225000D01*
X334437500Y-141225000D02*
X334437500Y-142225000D01*
%TO.C,SW25*%
X264668750Y-109175000D02*
X264668750Y-108175000D01*
X264668750Y-123175000D02*
X264668750Y-122175000D01*
X264668750Y-123175000D02*
X265668750Y-123175000D01*
X265668750Y-108175000D02*
X264668750Y-108175000D01*
X278668750Y-123175000D02*
X279668750Y-123175000D01*
X279668750Y-108175000D02*
X278668750Y-108175000D01*
X279668750Y-108175000D02*
X279668750Y-109175000D01*
X279668750Y-122175000D02*
X279668750Y-123175000D01*
%TO.C,SW48*%
X197993750Y-147275000D02*
X197993750Y-146275000D01*
X197993750Y-161275000D02*
X197993750Y-160275000D01*
X197993750Y-161275000D02*
X198993750Y-161275000D01*
X198993750Y-146275000D02*
X197993750Y-146275000D01*
X211993750Y-161275000D02*
X212993750Y-161275000D01*
X212993750Y-146275000D02*
X211993750Y-146275000D01*
X212993750Y-146275000D02*
X212993750Y-147275000D01*
X212993750Y-160275000D02*
X212993750Y-161275000D01*
%TD*%
M02*
